<?xml version="1.0" standalone="no"?>
<!DOCTYPE svg PUBLIC "-//W3C//DTD SVG 20010904//EN"
 "http://www.w3.org/TR/2001/REC-SVG-20010904/DTD/svg10.dtd">
<svg version="1.0" xmlns="http://www.w3.org/2000/svg"
 width="727.000000pt" height="545.000000pt" viewBox="0 0 727.000000 545.000000"
 preserveAspectRatio="xMidYMid meet">
<metadata>
Created by potrace 1.16, written by Peter Selinger 2001-2019
</metadata>
<g transform="translate(0.000000,545.000000) scale(0.100000,-0.100000)"
fill="#000000" stroke="none">
<path d="M3550 4440 l0 -199 -32 -5 c-145 -20 -242 -41 -325 -67 -524 -168
-914 -610 -1013 -1149 -11 -58 -22 -126 -25 -152 l-6 -48 -210 0 -209 0 0 -90
0 -90 209 0 c208 0 209 0 215 -22 3 -13 6 -36 6 -51 0 -16 9 -73 20 -126 111
-543 492 -973 1013 -1140 83 -26 180 -47 325 -67 l32 -5 0 -194 0 -195 90 0
90 0 0 195 0 194 33 5 c144 20 241 41 324 67 521 167 902 597 1013 1140 11 53
20 110 20 126 0 15 3 38 6 51 6 22 7 22 205 22 l199 0 0 90 0 90 -199 0 -200
0 -6 48 c-3 26 -14 94 -25 152 -99 539 -489 981 -1013 1149 -83 26 -180 47
-324 67 l-33 5 0 199 0 200 -90 0 -90 0 0 -200z m335 -405 c760 -158 1223
-917 1014 -1663 -133 -473 -527 -838 -1013 -937 -111 -22 -402 -23 -511 0
-760 157 -1223 917 -1014 1663 141 502 576 879 1095 951 97 14 334 6 429 -14z"/>
</g>
</svg>
